<?xml version="1.0" encoding="UTF-8" standalone="no"?>
<svg
   version="1.0"
   width="1080pt"
   height="1080pt"
   viewBox="0 0 1080 1080"
   preserveAspectRatio="xMidYMid"
   id="svg60"
   sodipodi:docname="image1.svg"
   xmlns:inkscape="http://www.inkscape.org/namespaces/inkscape"
   xmlns:sodipodi="http://sodipodi.sourceforge.net/DTD/sodipodi-0.dtd"
   xmlns="http://www.w3.org/2000/svg"
   xmlns:svg="http://www.w3.org/2000/svg">
  <defs
     id="defs60" />
  <sodipodi:namedview
     id="namedview60"
     pagecolor="#505050"
     bordercolor="#eeeeee"
     borderopacity="1"
     inkscape:showpageshadow="0"
     inkscape:pageopacity="0"
     inkscape:pagecheckerboard="0"
     inkscape:deskcolor="#505050"
     inkscape:document-units="pt">
    <inkscape:page
       x="0"
       y="0"
       width="1080"
       height="1080"
       id="page2"
       margin="0"
       bleed="0" />
  </sodipodi:namedview>
  <g
     transform="matrix(0.1831588,0,0,-0.17821304,-448.97147,1502.3359)"
     fill="#000000"
     stroke="none"
     id="g60"
     style="fill:#ffffff;fill-opacity:1">
    <path
       d="m 7190,8410 c -20,-20 -20,-33 -20,-630 v -611 l 25,-24 c 23,-24 30,-25 143,-25 h 118 l 74,-84 c 40,-47 79,-87 87,-90 17,-7 49,8 60,28 4,7 35,43 67,80 l 60,66 h 120 c 126,1 142,5 164,47 9,16 12,183 12,616 0,586 0,595 -21,621 l -20,26 h -425 c -411,0 -425,-1 -444,-20 z m 830,-635 v -585 l -387,2 -388,3 -3,570 c -1,314 0,576 3,583 3,9 91,12 390,12 h 385 z m -326,-667 c -21,-35 -49,-68 -58,-68 -12,0 -76,60 -76,72 0,4 32,8 71,8 53,0 68,-3 63,-12 z"
       id="path1"
       style="fill:#ffffff;fill-opacity:1" />
    <path
       d="m 7395,8230 c -3,-6 -3,-19 0,-30 6,-20 14,-20 143,-18 l 137,3 v 25 25 l -137,3 c -86,2 -139,-1 -143,-8 z"
       id="path2"
       style="fill:#ffffff;fill-opacity:1" />
    <path
       d="m 7400,8049 c -9,-15 -8,-24 1,-35 18,-22 258,-16 272,7 6,9 7,24 4,33 -5,14 -25,16 -136,16 -121,0 -131,-1 -141,-21 z"
       id="path3"
       style="fill:#ffffff;fill-opacity:1" />
    <path
       d="m 7393,7874 c -3,-9 -2,-24 4,-33 15,-24 271,-24 286,1 8,12 7,21 -2,32 -20,24 -279,24 -288,0 z"
       id="path4"
       style="fill:#ffffff;fill-opacity:1" />
    <path
       d="m 7399,7644 c -9,-11 -10,-20 -2,-32 8,-14 31,-17 133,-20 127,-3 150,3 150,38 0,26 -19,30 -150,30 -95,0 -120,-3 -131,-16 z"
       id="path5"
       style="fill:#ffffff;fill-opacity:1" />
    <path
       d="m 7395,7410 c -14,-44 8,-51 149,-48 l 131,3 v 30 30 l -137,3 c -131,2 -137,2 -143,-18 z"
       id="path6"
       style="fill:#ffffff;fill-opacity:1" />
    <path
       d="m 3109,8163 c -86,-3 -110,-7 -122,-21 -14,-16 -17,-68 -19,-405 -4,-457 6,-425 -124,-434 -120,-9 -160,-38 -204,-146 l -25,-62 -50,-5 c -41,-4 -51,-9 -53,-26 -2,-11 3,-26 11,-32 10,-9 202,-13 713,-14 l 699,-3 v -167 c 0,-161 1,-168 23,-190 l 23,-23 416,-5 417,-5 -3,-148 c -4,-205 -10,-197 164,-197 h 135 v -655 -656 l 24,-26 c 22,-23 33,-26 120,-31 l 96,-5 v -109 c 0,-113 12,-159 45,-172 9,-3 358,-6 776,-6 h 759 v -29 c 0,-16 9,-39 19,-52 19,-23 25,-24 223,-32 111,-4 397,-11 633,-15 l 430,-7 3,-217 2,-218 -747,-2 -748,-3 -3,-27 c -3,-22 1,-28 15,-28 10,1 350,0 756,-2 l 739,-3 24,28 c 24,28 24,30 24,248 0,223 -4,249 -39,276 -12,9 -118,12 -418,13 h -403 v 180 179 l 350,3 350,3 27,28 28,27 3,881 2,880 -29,30 -29,29 H 6650 5159 l -24,-25 c -25,-24 -25,-25 -25,-230 v -205 h -120 -120 v 154 c 0,140 -2,156 -21,180 l -20,26 h -415 -414 v 165 165 h 1411 1411 l 29,29 c 21,22 29,39 29,66 0,79 -74,164 -153,174 -40,6 -42,8 -62,63 -31,87 -86,137 -166,152 -35,6 -45,19 -218,281 -119,181 -188,276 -203,281 -29,9 -48,-15 -166,-205 -134,-216 -148,-234 -172,-221 -47,25 -152,-1 -194,-49 -11,-11 -24,-21 -31,-21 -6,0 -30,27 -53,60 -38,53 -47,60 -76,60 -19,0 -39,-7 -48,-17 -16,-19 -109,-183 -153,-271 -18,-37 -37,-58 -63,-71 -51,-26 -84,-65 -121,-139 -39,-78 -63,-102 -101,-102 -34,0 -37,6 -15,30 36,39 40,146 28,628 -6,255 -7,263 -29,287 l -23,25 h -311 -310 l -20,-32 -20,-33 -472,-5 -473,-5 -3,-27 c -2,-18 2,-28 15,-32 10,-3 239,-4 508,-3 l 490,2 14,32 14,32 140,3 c 76,2 140,1 140,-2 1,-3 0,-191 -3,-418 l -5,-414 -37,-34 -38,-34 h -899 -900 l 15,44 c 25,73 52,90 152,96 96,6 132,24 168,83 18,30 19,54 19,405 v 372 h 212 c 141,0 221,-4 238,-12 34,-15 61,8 51,45 -11,47 -57,51 -437,40 z m 1731,-579 c 0,-442 -1,-449 -58,-478 -15,-7 -66,-15 -113,-18 l -86,-4 24,34 23,35 v 417 c 0,229 2,419 4,421 2,2 50,3 105,1 l 101,-3 z m 1350,211 c 60,-90 128,-194 150,-231 l 41,-67 -28,8 c -146,38 -248,-6 -289,-124 -10,-32 -18,-38 -60,-48 -101,-26 -174,-109 -174,-200 v -43 h -399 -400 l 25,56 c 36,81 53,101 109,128 48,23 52,29 112,148 72,142 100,188 110,188 5,0 30,-34 58,-75 27,-41 54,-75 60,-75 6,0 31,21 55,46 75,76 136,94 187,54 14,-11 31,-20 38,-20 6,0 72,97 145,215 73,118 137,212 142,209 5,-3 58,-79 118,-169 z m 137,-375 c 33,-35 44,-37 68,-10 48,53 157,25 193,-51 12,-24 24,-63 28,-85 6,-41 7,-42 55,-47 65,-8 107,-31 126,-72 32,-67 44,-65 -453,-65 h -444 v 41 c 0,36 6,48 43,85 38,38 50,43 104,49 59,7 61,8 66,41 15,90 68,144 144,144 33,0 47,-6 70,-30 z M 8120,5856 v -863 l -97,-7 c -128,-8 -1820,-8 -2395,0 l -448,7 v 858 c 0,808 1,858 18,862 9,3 671,5 1470,6 l 1452,1 z M 6930,4795 v -115 l -757,2 -758,3 v 112 113 h 758 757 z m 440,-50 v -165 h -185 -185 v 165 165 h 185 185 z"
       id="path7"
       style="fill:#ffffff;fill-opacity:1" />
    <path
       d="m 5756,6597 c -24,-18 -17,-51 12,-55 23,-3 52,13 52,29 0,10 -29,39 -39,39 -4,0 -15,-6 -25,-13 z"
       id="path8"
       style="fill:#ffffff;fill-opacity:1" />
    <path
       d="m 7547,6603 c -16,-15 -6,-44 19,-53 27,-11 294,-14 331,-4 24,7 36,37 20,53 -12,12 -359,16 -370,4 z"
       id="path9"
       style="fill:#ffffff;fill-opacity:1" />
    <path
       d="m 5347,6593 c -4,-3 -7,-14 -7,-24 0,-24 29,-31 105,-27 57,3 60,4 63,31 l 3,27 h -79 c -43,0 -82,-3 -85,-7 z"
       id="path10"
       style="fill:#ffffff;fill-opacity:1" />
    <path
       d="m 5957,6393 c -4,-3 -7,-16 -7,-28 0,-21 6,-22 113,-28 167,-10 1700,-8 1715,2 8,4 12,19 10,32 l -3,24 -911,3 c -501,1 -914,-1 -917,-5 z"
       id="path11"
       style="fill:#ffffff;fill-opacity:1" />
    <path
       d="m 5535,6370 c -11,-35 3,-40 105,-40 78,0 99,3 104,15 14,38 -3,45 -104,45 -90,0 -99,-2 -105,-20 z"
       id="path12"
       style="fill:#ffffff;fill-opacity:1" />
    <path
       d="m 5537,6141 c -2,-10 -2,-24 2,-30 5,-7 100,-11 296,-11 246,-1 291,1 299,14 7,9 5,20 -3,30 -12,14 -51,16 -301,16 -274,0 -288,-1 -293,-19 z"
       id="path13"
       style="fill:#ffffff;fill-opacity:1" />
    <path
       d="m 6383,6144 c -7,-3 -13,-17 -13,-30 0,-24 0,-24 111,-24 h 110 l -3,28 -3,27 -95,2 c -52,1 -101,-1 -107,-3 z"
       id="path14"
       style="fill:#ffffff;fill-opacity:1" />
    <path
       d="m 6802,6133 c -19,-38 -5,-43 114,-43 114,0 114,0 114,24 0,32 -15,36 -125,36 -80,0 -96,-3 -103,-17 z"
       id="path15"
       style="fill:#ffffff;fill-opacity:1" />
    <path
       d="m 7617,6143 c -4,-3 -7,-17 -7,-30 0,-22 3,-23 79,-23 86,0 115,14 87,43 -15,15 -146,24 -159,10 z"
       id="path16"
       style="fill:#ffffff;fill-opacity:1" />
    <path
       d="m 7146,6005 c -3,-8 -3,-22 0,-30 5,-13 30,-15 163,-13 l 156,3 v 25 25 l -156,3 c -133,2 -158,0 -163,-13 z"
       id="path17"
       style="fill:#ffffff;fill-opacity:1" />
    <path
       d="m 6294,5945 c -15,-39 1,-45 120,-45 104,0 114,2 119,19 9,34 -13,41 -125,41 -87,0 -110,-3 -114,-15 z"
       id="path18"
       style="fill:#ffffff;fill-opacity:1" />
    <path
       d="m 7614,5945 c -15,-37 2,-46 83,-43 76,3 78,4 78,28 0,24 -2,25 -78,28 -62,2 -78,0 -83,-13 z"
       id="path19"
       style="fill:#ffffff;fill-opacity:1" />
    <path
       d="m 5533,5914 c -3,-8 -2,-19 3,-24 10,-10 338,-15 353,-5 6,3 11,15 11,26 0,18 -8,19 -180,19 -155,0 -181,-2 -187,-16 z"
       id="path20"
       style="fill:#ffffff;fill-opacity:1" />
    <path
       d="m 6146,5775 c -3,-8 -3,-22 0,-30 5,-13 62,-15 453,-13 l 446,3 v 25 25 l -446,3 c -391,2 -448,0 -453,-13 z"
       id="path21"
       style="fill:#ffffff;fill-opacity:1" />
    <path
       d="m 7510,5760 v -30 h 129 c 134,0 159,8 145,44 -5,14 -26,16 -140,16 h -134 z"
       id="path22"
       style="fill:#ffffff;fill-opacity:1" />
    <path
       d="m 5954,5633 c -8,-9 -13,-22 -10,-30 3,-8 6,-17 6,-19 0,-10 49,-2 59,10 26,32 -25,68 -55,39 z"
       id="path23"
       style="fill:#ffffff;fill-opacity:1" />
    <path
       d="m 6147,5601 c -2,-11 0,-24 6,-30 8,-8 250,-11 813,-11 697,0 803,2 814,15 7,8 10,22 6,30 -5,13 -102,15 -820,15 -793,0 -814,0 -819,-19 z"
       id="path24"
       style="fill:#ffffff;fill-opacity:1" />
    <path
       d="m 6507,5413 c -4,-3 -7,-15 -7,-25 0,-17 12,-18 158,-20 446,-5 986,-6 1055,-1 73,5 78,7 75,27 l -3,21 -636,3 c -349,1 -639,-1 -642,-5 z"
       id="path25"
       style="fill:#ffffff;fill-opacity:1" />
    <path
       d="m 5544,5245 c -4,-8 -4,-22 0,-30 5,-13 104,-15 838,-13 l 833,3 v 25 25 l -833,3 c -734,2 -833,0 -838,-13 z"
       id="path26"
       style="fill:#ffffff;fill-opacity:1" />
    <path
       d="m 3257,7803 c -14,-13 -7,-42 12,-53 24,-12 730,-14 749,-1 8,4 12,19 10,32 l -3,24 -381,3 c -209,1 -383,-1 -387,-5 z"
       id="path27"
       style="fill:#ffffff;fill-opacity:1" />
    <path
       d="m 4093,7794 c -14,-37 10,-49 99,-52 68,-2 89,1 102,13 12,12 13,21 6,36 -9,17 -22,19 -106,19 -78,0 -96,-3 -101,-16 z"
       id="path28"
       style="fill:#ffffff;fill-opacity:1" />
    <path
       d="m 3259,7624 c -9,-11 -10,-20 -2,-32 9,-15 56,-17 504,-20 272,-1 504,0 517,3 27,7 30,40 5,53 -10,4 -241,9 -514,10 -444,2 -498,1 -510,-14 z"
       id="path29"
       style="fill:#ffffff;fill-opacity:1" />
    <path
       d="m 3259,7454 c -9,-11 -10,-20 -2,-32 9,-15 44,-17 354,-17 h 344 l 3,24 c 2,13 -2,28 -10,32 -7,5 -162,9 -344,9 -290,0 -333,-2 -345,-16 z"
       id="path30"
       style="fill:#ffffff;fill-opacity:1" />
    <path
       d="m 3253,7274 c -3,-9 -2,-24 4,-33 9,-14 63,-16 515,-19 543,-2 539,-3 523,48 -6,20 -11,20 -521,20 -467,0 -515,-2 -521,-16 z"
       id="path31"
       style="fill:#ffffff;fill-opacity:1" />
    <path
       d="m 3246,6814 c -3,-9 -6,-104 -6,-213 0,-210 3,-225 53,-253 17,-10 171,-14 647,-18 l 625,-5 3,-133 c 1,-73 -1,-140 -6,-150 -5,-9 -7,-23 -5,-30 7,-18 39,-33 57,-26 13,5 15,30 10,187 -6,177 -7,183 -31,205 l -24,22 h -635 -634 v 215 215 h -24 c -13,0 -27,-7 -30,-16 z"
       id="path32"
       style="fill:#ffffff;fill-opacity:1" />
    <path
       d="m 3027,6024 c -264,-48 -490,-264 -558,-536 -18,-69 -20,-103 -16,-198 6,-151 38,-249 122,-374 135,-203 349,-315 603,-316 h 52 v -120 c 0,-115 1,-122 25,-145 l 24,-25 h 401 401 l -3,-72 -3,-73 -283,-3 c -240,-2 -284,-5 -288,-17 -4,-9 -1,-22 6,-30 10,-13 57,-15 291,-15 h 279 v -524 -525 l -36,-3 c -71,-6 -74,-68 -4,-68 h 40 v -74 c 0,-64 3,-76 25,-100 l 24,-26 h 446 c 245,0 445,-3 445,-6 0,-31 -55,-312 -62,-321 -6,-7 -32,-13 -58,-13 -33,0 -50,-5 -54,-15 -8,-23 3,-43 29,-49 42,-11 796,-6 816,5 22,11 25,42 6,57 -7,6 -32,12 -57,14 l -44,3 -27,145 c -16,80 -28,153 -29,163 0,16 27,17 436,17 h 436 l 29,29 c 27,27 29,35 29,100 v 71 h 44 c 36,0 46,4 51,20 10,31 -12,50 -56,50 h -39 v 621 c 0,637 -1,647 -39,676 -12,10 -277,12 -1161,13 -1021,0 -1148,-2 -1168,-16 -21,-14 -22,-14 -22,5 0,21 -3,21 -395,21 h -396 l 3,122 3,122 50,12 c 72,19 182,76 250,131 250,202 336,560 206,848 -104,229 -302,384 -542,424 -83,14 -134,13 -232,-5 z m 285,-79 c 227,-59 413,-259 463,-497 47,-220 -18,-431 -180,-593 -128,-128 -247,-175 -443,-175 -96,0 -122,4 -199,30 -274,93 -445,350 -431,648 19,400 406,687 790,587 z m 3086,-2277 -3,-623 H 5275 4155 l -3,623 -2,622 h 1125 1125 z m 0,-756 3,-62 -1123,2 -1123,3 -3,49 c -2,27 -1,55 2,62 5,12 180,14 1123,12 l 1118,-3 z m -925,-169 c 3,-21 15,-94 27,-162 11,-68 18,-127 14,-130 -3,-3 -111,-8 -240,-10 -192,-2 -234,-1 -234,10 0,17 38,263 46,302 l 6,27 h 187 188 z"
       id="path33"
       style="fill:#ffffff;fill-opacity:1" />
    <path
       d="m 3072,5739 c -140,-27 -285,-188 -286,-319 -1,-41 1,-45 23,-45 27,0 31,7 57,89 22,72 90,150 160,186 129,65 312,16 392,-105 17,-26 29,-51 27,-55 -3,-5 -24,-11 -46,-15 -40,-7 -43,-6 -81,39 -52,61 -125,86 -196,67 -73,-19 -108,-46 -138,-107 -24,-50 -26,-62 -22,-147 5,-107 37,-186 94,-236 73,-65 203,-66 308,-2 23,14 37,17 55,10 l 24,-10 -34,-35 c -18,-19 -59,-47 -89,-62 -46,-23 -68,-27 -136,-27 -74,0 -88,4 -157,39 -78,39 -107,41 -107,7 0,-44 123,-107 228,-117 122,-12 227,29 318,123 52,53 62,84 40,117 -20,31 -118,57 -145,38 -171,-123 -315,-56 -329,153 -4,61 -1,81 17,118 44,92 140,100 220,20 25,-24 51,-47 58,-52 18,-10 163,6 179,20 28,23 26,49 -10,113 -89,158 -245,231 -424,195 z"
       id="path34"
       style="fill:#ffffff;fill-opacity:1" />
    <path
       d="m 4486,3954 c -32,-31 -14,-84 29,-84 29,0 45,19 45,52 0,42 -45,62 -74,32 z"
       id="path35"
       style="fill:#ffffff;fill-opacity:1" />
    <path
       d="m 4677,3963 c -14,-13 -6,-43 13,-53 12,-6 75,-9 161,-8 118,3 144,6 152,19 6,9 7,24 4,33 -6,14 -27,16 -165,16 -87,0 -162,-3 -165,-7 z"
       id="path36"
       style="fill:#ffffff;fill-opacity:1" />
    <path
       d="m 5373,3954 c -3,-9 -2,-24 4,-33 9,-14 52,-16 374,-19 200,-1 374,0 387,3 18,5 23,11 20,33 l -3,27 -388,3 c -352,2 -388,1 -394,-14 z"
       id="path37"
       style="fill:#ffffff;fill-opacity:1" />
    <path
       d="m 4724,3785 c -4,-8 -4,-22 0,-30 4,-13 36,-15 195,-15 159,0 190,2 195,15 3,8 3,22 0,30 -5,13 -36,15 -195,15 -159,0 -191,-2 -195,-15 z"
       id="path38"
       style="fill:#ffffff;fill-opacity:1" />
    <path
       d="m 5374,3785 c -4,-8 -4,-22 0,-30 5,-13 58,-15 396,-15 h 391 l -3,28 -3,27 -388,3 c -338,2 -388,0 -393,-13 z"
       id="path39"
       style="fill:#ffffff;fill-opacity:1" />
    <path
       d="m 4480,3670 c -35,-35 -19,-70 32,-70 45,0 57,48 20,78 -21,16 -29,15 -52,-8 z"
       id="path40"
       style="fill:#ffffff;fill-opacity:1" />
    <path
       d="m 4682,3561 c -8,-4 -12,-19 -10,-32 l 3,-24 h 740 740 l 3,24 c 2,13 -2,28 -10,32 -7,5 -337,9 -733,9 -396,0 -726,-4 -733,-9 z"
       id="path41"
       style="fill:#ffffff;fill-opacity:1" />
    <path
       d="m 4475,3416 c -32,-49 31,-101 67,-56 22,27 23,44 2,64 -23,23 -51,20 -69,-8 z"
       id="path42"
       style="fill:#ffffff;fill-opacity:1" />
    <path
       d="m 4682,3373 3,-28 h 265 265 v 25 25 l -268,3 -268,2 z"
       id="path43"
       style="fill:#ffffff;fill-opacity:1" />
    <path
       d="m 5376,3384 c -13,-33 13,-44 104,-44 91,0 117,11 104,44 -5,13 -23,16 -104,16 -81,0 -99,-3 -104,-16 z"
       id="path44"
       style="fill:#ffffff;fill-opacity:1" />
    <path
       d="m 5650,3265 v -25 h 255 255 v 25 25 h -255 -255 z"
       id="path45"
       style="fill:#ffffff;fill-opacity:1" />
    <path
       d="m 4357,5835 c -151,-38 -302,-148 -387,-282 -33,-51 -38,-88 -15,-97 25,-9 38,2 79,65 74,115 205,209 340,245 66,18 207,18 274,0 134,-36 236,-107 336,-233 59,-74 72,-83 94,-61 19,19 14,36 -30,95 -89,121 -212,214 -338,255 -84,27 -268,34 -353,13 z"
       id="path46"
       style="fill:#ffffff;fill-opacity:1" />
    <path
       d="m 4232,5478 c -21,-21 -13,-34 51,-89 99,-85 206,-215 277,-334 69,-117 117,-148 160,-105 19,19 20,33 20,259 0,205 -2,240 -16,252 -11,9 -20,10 -32,2 -15,-9 -18,-39 -22,-227 l -5,-217 -81,123 c -90,135 -208,269 -281,317 -52,35 -54,36 -71,19 z"
       id="path47"
       style="fill:#ffffff;fill-opacity:1" />
    <path
       d="m 3926,5015 c -19,-19 -13,-35 40,-111 116,-165 273,-259 471,-285 197,-25 395,49 546,203 94,97 127,158 91,172 -27,10 -31,8 -84,-59 -104,-131 -237,-212 -395,-241 -84,-16 -95,-16 -179,0 -186,36 -302,115 -423,290 -35,50 -44,54 -67,31 z"
       id="path48"
       style="fill:#ffffff;fill-opacity:1" />
    <path
       d="m 2707,3732 c -15,-17 -17,-76 -17,-638 l -1,-619 22,-17 c 20,-17 59,-18 494,-18 464,0 473,0 499,21 l 26,21 -2,615 -3,615 -24,19 c -22,18 -46,19 -501,19 -449,0 -478,-1 -493,-18 z m 944,-164 c 0,-62 1,-323 2,-580 l 3,-468 h -448 -448 v 580 580 h 445 445 z"
       id="path49"
       style="fill:#ffffff;fill-opacity:1" />
    <path
       d="m 3110,3513 c -42,-8 -123,-43 -162,-70 -26,-18 -38,-33 -38,-50 0,-28 26,-41 49,-25 9,7 43,27 76,44 57,31 65,33 165,33 95,0 111,-3 167,-29 35,-16 68,-35 74,-42 15,-18 43,-18 59,1 10,12 9,19 -3,38 -19,29 -104,75 -171,93 -48,13 -163,17 -216,7 z"
       id="path50"
       style="fill:#ffffff;fill-opacity:1" />
    <path
       d="m 3163,3339 c -61,-18 -93,-93 -67,-158 31,-77 122,-103 188,-55 68,51 60,171 -14,209 -32,17 -59,18 -107,4 z m 78,-69 c 26,-15 25,-64 -2,-84 -49,-34 -106,36 -63,78 18,19 38,20 65,6 z"
       id="path51"
       style="fill:#ffffff;fill-opacity:1" />
    <path
       d="m 2866,3154 c -21,-20 -20,-41 1,-53 37,-20 71,27 41,57 -16,16 -23,15 -42,-4 z"
       id="path52"
       style="fill:#ffffff;fill-opacity:1" />
    <path
       d="m 3500,3155 c -20,-25 -8,-50 25,-50 21,0 31,5 33,18 4,21 -14,47 -33,47 -7,0 -18,-7 -25,-15 z"
       id="path53"
       style="fill:#ffffff;fill-opacity:1" />
    <path
       d="m 2850,2940 v -30 h 360 c 332,0 360,1 368,18 22,41 17,42 -364,42 h -364 z"
       id="path54"
       style="fill:#ffffff;fill-opacity:1" />
    <path
       d="m 2855,2779 c -4,-12 -2,-26 4,-33 17,-16 687,-21 707,-5 19,15 18,45 -2,53 -9,3 -170,6 -359,6 -340,0 -344,0 -350,-21 z"
       id="path55"
       style="fill:#ffffff;fill-opacity:1" />
    <path
       d="m 7098,3687 c -35,-29 -104,-85 -154,-125 -51,-40 -97,-85 -103,-100 -8,-20 -11,-171 -9,-526 l 3,-498 33,-29 32,-29 h 475 c 319,0 482,4 498,11 57,26 57,25 57,538 v 471 h 205 c 174,0 207,2 211,15 4,8 1,22 -6,30 -10,12 -47,15 -211,15 h -199 v 101 c 0,104 -8,132 -44,161 -19,16 -55,18 -373,18 h -352 z m 756,-33 c 3,-9 6,-278 6,-599 0,-480 -2,-585 -14,-594 -9,-8 -143,-10 -477,-9 l -464,3 v 475 475 l 325,5 325,5 v 25 25 l -177,3 -178,2 v 100 100 h 324 c 286,0 325,-2 330,-16 z m -732,-114 -4,-70 h -79 c -43,0 -79,3 -78,8 0,7 150,132 159,132 3,0 4,-31 2,-70 z"
       id="path56"
       style="fill:#ffffff;fill-opacity:1" />
    <path
       d="m 7140,3221 c -29,-5 -35,-10 -35,-31 v -25 h 134 c 118,0 135,2 145,18 20,33 -16,47 -118,46 -50,-1 -107,-4 -126,-8 z"
       id="path57"
       style="fill:#ffffff;fill-opacity:1" />
    <path
       d="m 7101,2996 c -6,-7 -9,-21 -5,-30 6,-15 35,-16 293,-14 l 286,3 v 25 25 l -281,3 c -230,2 -283,0 -293,-12 z"
       id="path58"
       style="fill:#ffffff;fill-opacity:1" />
    <path
       d="m 7107,2843 c -16,-16 -6,-53 16,-58 12,-3 141,-4 287,-3 l 265,3 v 30 30 l -281,3 c -154,1 -283,-1 -287,-5 z"
       id="path59"
       style="fill:#ffffff;fill-opacity:1" />
    <path
       d="m 7101,2672 c -5,-9 -6,-24 -1,-32 7,-13 52,-15 292,-14 h 283 v 30 29 l -282,3 c -263,2 -283,1 -292,-16 z"
       id="path60"
       style="fill:#ffffff;fill-opacity:1" />
  </g>
</svg>
